#N canvas 684 0 675 722 12;
#X obj 419 28 gemhead;
#X obj 452 200 pix_texture;
#X obj 148 108 gemwin;
#X msg 218 109 0 \, destroy;
#X msg 144 79 reset \, dimen 640 480 \, create \, 1;
#X msg 217 132 fullscreen \$1;
#X obj 322 129 tgl 23 0 empty empty Toggle_Fullscreen -15 -15 0 10
-4032 -1 -1 1 1;
#X msg 217 159 cursor \$1;
#X obj 309 174 tgl 23 0 empty empty Toggle_Mouse -25 -10 0 15 -4160
-1 -1 1 1;
#X obj 454 345 rotate;
#X obj 452 227 t a b;
#X obj 479 253 f;
#X obj 473 281 + 1;
#X obj 1206 38 loadbang;
#X floatatom 1181 154 5 0 0 0 - - -;
#X obj 1179 40 bng 15 250 50 0 empty empty empty 17 7 0 10 -262144
-1 -1;
#X obj 1181 206 line;
#X obj 989 21 loadbang;
#X floatatom 1083 166 5 0 0 0 - - -;
#X obj 962 23 bng 15 250 50 0 empty empty empty 17 7 0 10 -262144 -1
-1;
#X obj 1083 266 line;
#X msg 1083 241 \$1 900;
#X obj 1083 113 random 100;
#X obj 1083 141 / 100;
#X floatatom 1085 293 5 0 0 0 - - -;
#X floatatom 853 165 5 0 0 0 - - -;
#X obj 853 269 line;
#X msg 853 244 \$1 900;
#X obj 853 110 random 100;
#X obj 853 140 / 100;
#X floatatom 855 296 5 0 0 0 - - -;
#X floatatom 971 165 5 0 0 0 - - -;
#X obj 971 267 line;
#X msg 971 242 \$1 900;
#X obj 971 110 random 100;
#X obj 971 140 / 100;
#X floatatom 974 294 5 0 0 0 - - -;
#X obj 855 320 s \$0-xa;
#X obj 536 347 pack f f f;
#X obj 974 324 s \$0-ya;
#X obj 1085 320 s \$0-za;
#X obj 507 318 r \$0-xa;
#X obj 602 319 r \$0-ya;
#X obj 564 290 r \$0-za;
#X obj 151 36 bng 30 250 50 0 empty empty Make_Window 17 7 0 10 -159808
-1 -1;
#X obj 454 469 t a b;
#X obj 485 499 f;
#X obj 485 523 + 1;
#X obj 392 555 spigot;
#X obj 456 398 alpha;
#X obj 83 148 loadbang;
#X obj 217 286 bng 15 250 50 0 empty empty empty 17 7 0 10 -262144
-1 -1;
#X obj 12 482 line;
#X obj 84 480 line;
#X obj 162 480 line;
#X obj 199 588 translateXYZ;
#X obj 84 391 random 5;
#X obj 163 391 random 5;
#X obj 13 425 - 2.5;
#X msg 1181 181 \$1 1000;
#X obj 13 546 +;
#X obj 15 579 +;
#X floatatom 13 616 5 0 0 0 - - -;
#X obj 453 162 translateXYZ;
#X msg 650 552 draw line;
#X obj 452 436 cube 1.5, f 14;
#X obj 85 422 - 2.5;
#X obj 163 423 - 2.5;
#X msg 161 285 stop;
#X obj 475 566 mod 3;
#X obj 905 478 pix_video;
#X obj 1081 482 tgl 23 0 empty empty Camera_on -15 -15 0 10 -4034 -1
-1 0 1;
#X floatatom 544 568 5 0 0 0 - - -;
#X msg 831 533 draw point;
#X obj 184 243 sel, f 5;
#X obj 135 214 tgl 15 0 empty empty empty 17 7 0 10 -262144 -1 -1 0
1;
#X msg 748 548 draw fill;
#X obj 1180 237 s \$0-rspeed;
#X obj 520 254 r \$0-rspeed;
#X obj 155 158 bng 15 250 50 0 empty empty empty 17 7 0 10 -262144
-1 -1;
#X obj 13 393 random 2;
#X obj 853 192 * 2;
#X obj 853 216 - 1;
#X obj 972 191 * 2;
#X obj 972 215 - 1;
#X obj 1083 193 * 2;
#X obj 1083 217 - 1;
#X obj 1181 99 random 2;
#X obj 1181 127 - 1;
#X obj 1183 68 metro 1000;
#X obj 964 53 metro 1000;
#X obj 674 682 line;
#X obj 452 132 colorRGB 1 1 1 0.5;
#X obj 674 598 sel, f 5;
#X obj 722 311 loadbang;
#X obj 722 336 bng 15 250 50 0 empty empty empty 17 7 0 10 -262144
-1 -1;
#X msg 674 623 1;
#X msg 706 623 0;
#X obj 742 681 line;
#X obj 742 597 sel, f 5;
#X msg 742 622 1;
#X msg 774 622 0;
#X obj 812 680 line;
#X obj 812 596 sel, f 5;
#X msg 812 621 1;
#X msg 844 621 0;
#X floatatom 722 431 5 0 0 0 - - -;
#X obj 722 387 bng 15 250 50 0 empty empty empty 17 7 0 10 -262144
-1 -1;
#X obj 722 454 sel 0 1 2;
#X obj 679 484 tgl 15 0 empty empty empty 17 7 0 10 -262144 -1 -1 0
1;
#X obj 737 483 tgl 15 0 empty empty empty 17 7 0 10 -262144 -1 -1 1
1;
#X obj 812 486 tgl 15 0 empty empty empty 17 7 0 10 -262144 -1 -1 0
1;
#X floatatom 672 712 5 0 0 0 - - -;
#X floatatom 742 711 5 0 0 0 - - -;
#X floatatom 812 713 5 0 0 0 - - -;
#X obj 660 736 s \$0-red;
#X obj 729 736 s \$0-green;
#X obj 806 736 s \$0-blue;
#X obj 76 631 r \$0-red;
#X obj 146 635 r \$0-green;
#X obj 222 633 r \$0-blue;
#X obj 483 105 r \$0-red;
#X obj 479 78 r \$0-green;
#X obj 552 104 r \$0-blue;
#X obj 122 188 metro 200;
#X obj 960 392 gemhead;
#X obj 903 436 translateXYZ 0 0 -10;
#X obj 896 581 pix_texture;
#X msg 1038 512 device 0;
#X msg 672 387 stop;
#X msg 1064 24 stop;
#X msg 519 375 5;
#X obj 381 53 translateXYZ 0 0 -3;
#X obj 116 675 colorRGB 1 1 1 1;
#X obj 414 611 expr (($f1/$f2)-1)*-1;
#X obj 1099 591 pack f f f;
#X obj 1099 541 r \$0-xa;
#X obj 1132 519 r \$0-ya;
#X obj 1165 495 r \$0-za;
#X obj 992 640 rotate 0 1 0 0;
#X obj 944 527 t a b;
#X obj 1016 554 r \$0-rspeed;
#X obj 978 555 f;
#X obj 978 579 + 1;
#X obj 324 408 writesf~;
#X obj 965 670 cube 3.5;
#X msg 13 455 \$1 90;
#X msg 86 452 \$1 90;
#X msg 163 452 \$1 90;
#X obj 94 351 metro 100;
#X obj 722 357 metro 500;
#X obj 722 406 random 3;
#X msg 674 652 \$1 500;
#X msg 743 651 \$1 500;
#X msg 812 650 \$1 500;
#X connect 0 0 132 0;
#X connect 1 0 10 0;
#X connect 3 0 2 0;
#X connect 4 0 2 0;
#X connect 5 0 2 0;
#X connect 6 0 5 0;
#X connect 7 0 2 0;
#X connect 8 0 7 0;
#X connect 9 0 49 0;
#X connect 10 0 9 0;
#X connect 10 1 11 0;
#X connect 11 0 12 0;
#X connect 12 0 11 1;
#X connect 12 0 9 1;
#X connect 13 0 89 0;
#X connect 14 0 59 0;
#X connect 15 0 89 0;
#X connect 16 0 77 0;
#X connect 17 0 90 0;
#X connect 18 0 85 0;
#X connect 19 0 90 0;
#X connect 20 0 24 0;
#X connect 21 0 20 0;
#X connect 22 0 23 0;
#X connect 23 0 18 0;
#X connect 24 0 40 0;
#X connect 25 0 81 0;
#X connect 26 0 30 0;
#X connect 27 0 26 0;
#X connect 28 0 29 0;
#X connect 29 0 25 0;
#X connect 30 0 37 0;
#X connect 31 0 83 0;
#X connect 32 0 36 0;
#X connect 33 0 32 0;
#X connect 34 0 35 0;
#X connect 35 0 31 0;
#X connect 36 0 39 0;
#X connect 38 0 9 2;
#X connect 41 0 38 0;
#X connect 42 0 38 2;
#X connect 43 0 38 1;
#X connect 44 0 4 0;
#X connect 45 0 48 0;
#X connect 45 1 46 0;
#X connect 46 0 47 0;
#X connect 47 0 46 1;
#X connect 47 0 69 0;
#X connect 48 0 55 0;
#X connect 49 0 65 0;
#X connect 50 0 124 0;
#X connect 50 0 149 0;
#X connect 51 0 149 0;
#X connect 52 0 60 0;
#X connect 52 0 55 1;
#X connect 52 0 63 1;
#X connect 53 0 60 1;
#X connect 53 0 55 2;
#X connect 53 0 63 2;
#X connect 54 0 61 1;
#X connect 54 0 55 3;
#X connect 54 0 63 3;
#X connect 55 0 133 0;
#X connect 56 0 66 0;
#X connect 57 0 67 0;
#X connect 58 0 146 0;
#X connect 59 0 16 0;
#X connect 60 0 61 0;
#X connect 61 0 62 0;
#X connect 63 0 1 0;
#X connect 64 0 65 0;
#X connect 65 0 45 0;
#X connect 66 0 147 0;
#X connect 67 0 148 0;
#X connect 68 0 149 0;
#X connect 68 0 124 0;
#X connect 69 0 48 1;
#X connect 69 0 134 0;
#X connect 70 0 140 0;
#X connect 71 0 128 0;
#X connect 72 0 69 1;
#X connect 72 0 134 1;
#X connect 74 0 68 0;
#X connect 74 1 51 0;
#X connect 75 0 74 0;
#X connect 76 0 65 0;
#X connect 78 0 12 1;
#X connect 79 0 124 0;
#X connect 80 0 58 0;
#X connect 81 0 82 0;
#X connect 82 0 27 0;
#X connect 83 0 84 0;
#X connect 84 0 33 0;
#X connect 85 0 86 0;
#X connect 86 0 21 0;
#X connect 87 0 88 0;
#X connect 88 0 14 0;
#X connect 89 0 87 0;
#X connect 90 0 22 0;
#X connect 90 0 34 0;
#X connect 90 0 28 0;
#X connect 91 0 112 0;
#X connect 92 0 63 0;
#X connect 93 0 96 0;
#X connect 93 1 97 0;
#X connect 94 0 95 0;
#X connect 95 0 150 0;
#X connect 96 0 152 0;
#X connect 97 0 152 0;
#X connect 98 0 113 0;
#X connect 99 0 100 0;
#X connect 99 1 101 0;
#X connect 100 0 153 0;
#X connect 101 0 153 0;
#X connect 102 0 114 0;
#X connect 103 0 104 0;
#X connect 103 1 105 0;
#X connect 104 0 154 0;
#X connect 105 0 154 0;
#X connect 106 0 108 0;
#X connect 107 0 151 0;
#X connect 108 0 109 0;
#X connect 108 1 110 0;
#X connect 108 2 111 0;
#X connect 109 0 93 0;
#X connect 109 0 64 0;
#X connect 110 0 99 0;
#X connect 110 0 76 0;
#X connect 111 0 103 0;
#X connect 111 0 73 0;
#X connect 112 0 115 0;
#X connect 113 0 116 0;
#X connect 114 0 117 0;
#X connect 118 0 133 1;
#X connect 119 0 133 2;
#X connect 120 0 133 3;
#X connect 121 0 92 1;
#X connect 122 0 92 2;
#X connect 123 0 92 3;
#X connect 124 0 75 0;
#X connect 126 0 70 0;
#X connect 127 0 139 0;
#X connect 128 0 70 0;
#X connect 129 0 150 0;
#X connect 130 0 90 0;
#X connect 131 0 49 1;
#X connect 132 0 92 0;
#X connect 133 0 63 0;
#X connect 134 0 133 4;
#X connect 135 0 139 2;
#X connect 136 0 135 0;
#X connect 137 0 135 1;
#X connect 138 0 135 2;
#X connect 139 0 145 0;
#X connect 140 0 127 0;
#X connect 140 1 142 0;
#X connect 141 0 143 1;
#X connect 142 0 143 0;
#X connect 143 0 139 1;
#X connect 143 0 142 1;
#X connect 146 0 52 0;
#X connect 147 0 53 0;
#X connect 148 0 54 0;
#X connect 149 0 57 0;
#X connect 149 0 56 0;
#X connect 149 0 80 0;
#X connect 150 0 107 0;
#X connect 151 0 106 0;
#X connect 152 0 91 0;
#X connect 153 0 98 0;
#X connect 154 0 102 0;
