#N canvas 683 0 675 682 12;
#X obj 452 200 pix_texture;
#X obj 454 345 rotate;
#X obj 452 227 t a b;
#X obj 479 253 f;
#X obj 473 281 + 1;
#X obj 1168 310 loadbang;
#X floatatom 1143 426 5 0 0 0 - - -;
#X obj 1141 312 bng 15 250 50 0 empty empty empty 17 7 0 10 -262144
-1 -1;
#X obj 1143 478 line;
#X obj 1173 -138 loadbang;
#X floatatom 1267 7 5 0 0 0 - - -;
#X obj 1146 -136 bng 15 250 50 0 empty empty empty 17 7 0 10 -262144
-1 -1;
#X obj 1267 107 line;
#X msg 1267 82 \$1 900;
#X obj 1267 -46 random 100;
#X obj 1267 -18 / 100;
#X floatatom 1269 134 5 0 0 0 - - -;
#X floatatom 1037 6 5 0 0 0 - - -;
#X obj 1037 110 line;
#X msg 1037 85 \$1 900;
#X obj 1037 -49 random 100;
#X obj 1037 -19 / 100;
#X floatatom 1039 137 5 0 0 0 - - -;
#X floatatom 1155 6 5 0 0 0 - - -;
#X obj 1155 108 line;
#X msg 1155 83 \$1 900;
#X obj 1155 -49 random 100;
#X obj 1155 -19 / 100;
#X floatatom 1158 135 5 0 0 0 - - -;
#X obj 1039 161 s \$0-xa;
#X obj 536 347 pack f f f;
#X obj 1158 165 s \$0-ya;
#X obj 1269 161 s \$0-za;
#X obj 507 318 r \$0-xa;
#X obj 602 319 r \$0-ya;
#X obj 564 290 r \$0-za;
#X obj 454 469 t a b;
#X obj 485 499 f;
#X obj 485 523 + 1;
#X obj 392 555 spigot;
#X obj 456 398 alpha;
#X obj 31 165 loadbang;
#X obj 166 316 bng 15 250 50 0 empty empty empty 17 7 0 10 -262144
-1 -1;
#X obj 73 620 line;
#X obj 145 618 line;
#X obj 223 618 line;
#X obj 198 701 translateXYZ;
#X obj 56 499 random 5;
#X obj 128 497 random 5;
#X msg 1143 453 \$1 1000;
#X obj 453 162 translateXYZ;
#X msg 657 368 draw line;
#X obj 452 436 cube 1.5, f 14;
#X msg 95 299 stop;
#X obj 475 566 mod 3;
#X obj 132 260 sel, f 5;
#X obj 123 238 tgl 15 0 empty empty empty 17 7 0 10 -262144 -1 -1 0
1;
#X msg 768 374 draw fill;
#X obj 1142 509 s \$0-rspeed;
#X obj 520 232 r \$0-rspeed;
#X obj 103 175 bng 15 250 50 0 empty empty empty 17 7 0 10 -262144
-1 -1;
#X obj 1037 33 * 2;
#X obj 1037 57 - 1;
#X obj 1156 32 * 2;
#X obj 1156 56 - 1;
#X obj 1267 34 * 2;
#X obj 1267 58 - 1;
#X obj 1143 371 random 2;
#X obj 1143 399 - 1;
#X obj 1145 340 metro 1000;
#X obj 1148 -106 metro 1000;
#X obj 632 665 line;
#X obj 453 72 colorRGB 1 1 1 0.5;
#X obj 675 421 sel, f 5;
#X obj 723 134 loadbang;
#X obj 723 159 bng 15 250 50 0 empty empty empty 17 7 0 10 -262144
-1 -1;
#X msg 675 446 1;
#X obj 718 675 line;
#X obj 743 420 sel, f 5;
#X msg 743 445 1;
#X msg 776 445 0;
#X obj 803 673 line;
#X obj 813 419 sel, f 5;
#X msg 813 444 1;
#X msg 845 444 0;
#X floatatom 723 254 5 0 0 0 - - -;
#X obj 723 210 bng 15 250 50 0 empty empty empty 17 7 0 10 -262144
-1 -1;
#X obj 723 277 sel 0 1 2;
#X obj 680 307 tgl 15 0 empty empty empty 17 7 0 10 -262144 -1 -1 0
1;
#X obj 738 306 tgl 15 0 empty empty empty 17 7 0 10 -262144 -1 -1 1
1;
#X obj 813 309 tgl 15 0 empty empty empty 17 7 0 10 -262144 -1 -1 0
1;
#X floatatom 630 695 5 0 0 0 - - -;
#X floatatom 718 705 5 0 0 0 - - -;
#X floatatom 803 706 5 0 0 0 - - -;
#X obj 618 719 s \$0-red;
#X obj 705 730 s \$0-green;
#X obj 797 729 s \$0-blue;
#X obj 75 744 r \$0-red;
#X obj 145 748 r \$0-green;
#X obj 221 746 r \$0-blue;
#X obj 484 45 r \$0-red;
#X obj 480 18 r \$0-green;
#X obj 553 44 r \$0-blue;
#X msg 673 210 stop;
#X msg 1248 -135 stop;
#X obj 323 20 translateXYZ 0 0 -3;
#X obj 115 788 colorRGB 1 1 1 1;
#X obj 448 605 expr (($f1/$f2)-1)*-1;
#X obj 723 229 random 3;
#X obj 723 180 metro 50;
#X obj 522 -147 inlet;
#X obj 518 -123 s \$0-crazy;
#X obj 825 191 r \$0-crazy;
#X obj 798 611 pack f f;
#X obj 626 614 pack f f;
#X obj 715 617 pack f f;
#X msg 707 446 0, f 2;
#X obj 360 -145 inlet;
#X obj 360 -117 s \$0-jitter;
#X obj 241 212 r \$0-jitter;
#X obj 241 266 * 3000;
#X obj -30 500 random 5;
#X obj 241 238 expr (($f1-1)*($f1-1));
#X obj -15 350 r \$0-jitter;
#X obj 81 362 metro 100;
#X obj 144 421 / 2;
#X obj 12 538 -;
#X obj 87 534 -;
#X obj 162 536 -;
#X obj 109 205 metro 20;
#X obj 17 451 * 5;
#X obj 162 568 pack f f;
#X obj 87 567 pack f f;
#X obj 12 567 pack f f;
#X obj 822 217 expr (($f1-1)*($f1-1));
#X obj 826 249 * 1000;
#X obj 429 867 line;
#X obj 423 821 pack f f;
#X obj 417 726 r \$0-jitter;
#X obj 449 911 +;
#X obj 446 791 * 4;
#X obj 421 757 expr (($f1-1)*($f1-1));
#X msg 835 361 draw point;
#X obj 958 603 loadbang;
#X obj 999 631 bng 15 250 50 0 empty empty empty 17 7 0 10 -262144
-1 -1;
#X obj 980 663 metro 1000;
#X msg 1028 638 stop, f 5;
#X obj 1238 917 line;
#X obj 1004 916 line;
#X obj 1124 910 line;
#X obj 1234 837 - 2;
#X obj 1124 834 - 2;
#X obj 1005 836 - 2;
#X obj 970 790 random 5;
#X obj 1122 805 random 5;
#X obj 1235 805 random 5;
#X obj 995 960 s \$0-xdist;
#X obj 1118 962 s \$0-ydist;
#X obj 1228 958 s \$0-zdist;
#X obj 443 124 r \$0-xdist;
#X obj 483 96 r \$0-ydist;
#X obj 532 124 r \$0-zdist;
#X obj 830 -140 inlet;
#X obj 625 -143 inlet;
#X obj 550 -37 unpack f f f;
#X obj 214 -143 inlet;
#X text 175 -168 gemhead inlet;
#X text 825 -166 number of cubes;
#X text 1076 278 random speed + direction;
#X text 1005 586 random cube wander;
#X text 284 -168 amount of random jumping;
#X text 482 -169 color and draw type jump freq;
#X obj 829 -106 s \$0-repeatcubes;
#X obj 529 538 r \$0-repeatcubes;
#X obj 1166 641 expr (($f1-1)*($f1-1));
#X obj 1076 610 r \$0-wander;
#X obj 716 -145 inlet;
#X obj 748 -28 s \$0-wander;
#X text 687 -2 keep cubes on main position or let them wander;
#X text 532 -71 master cube position;
#X obj 1120 663 / 2;
#X floatatom 1208 664 5 0 0 0 - - -;
#X floatatom 1259 938 5 0 0 0 - - -;
#X floatatom 1145 937 5 0 0 0 - - -;
#X floatatom 1023 941 5 0 0 0 - - -;
#X obj 1071 663 * 8;
#X obj 1206 711 + 100;
#X obj 1207 686 * 2000;
#X obj 1206 735 / 2;
#X obj 999 878 pack f f;
#X obj 1126 872 pack f f;
#X obj 1229 877 pack f f;
#X text 142 168 some jittery BS!!;
#X text 1105 -76 random rotation axis;
#X floatatom 896 504 5 0 0 0 - - -;
#X obj 789 249 + 25;
#X msg 505 398 5;
#X obj 505 372 loadbang;
#X connect 0 0 2 0;
#X connect 1 0 40 0;
#X connect 2 0 1 0;
#X connect 2 1 3 0;
#X connect 3 0 4 0;
#X connect 4 0 3 1;
#X connect 4 0 1 1;
#X connect 5 0 69 0;
#X connect 6 0 49 0;
#X connect 7 0 69 0;
#X connect 8 0 58 0;
#X connect 9 0 70 0;
#X connect 10 0 65 0;
#X connect 11 0 70 0;
#X connect 12 0 16 0;
#X connect 13 0 12 0;
#X connect 14 0 15 0;
#X connect 15 0 10 0;
#X connect 16 0 32 0;
#X connect 17 0 61 0;
#X connect 18 0 22 0;
#X connect 19 0 18 0;
#X connect 20 0 21 0;
#X connect 21 0 17 0;
#X connect 22 0 29 0;
#X connect 23 0 63 0;
#X connect 24 0 28 0;
#X connect 25 0 24 0;
#X connect 26 0 27 0;
#X connect 27 0 23 0;
#X connect 28 0 31 0;
#X connect 30 0 1 2;
#X connect 33 0 30 0;
#X connect 34 0 30 2;
#X connect 35 0 30 1;
#X connect 36 0 39 0;
#X connect 36 1 37 0;
#X connect 37 0 38 0;
#X connect 38 0 37 1;
#X connect 38 0 54 0;
#X connect 39 0 46 0;
#X connect 40 0 52 0;
#X connect 41 0 124 0;
#X connect 41 0 129 0;
#X connect 42 0 124 0;
#X connect 43 0 46 1;
#X connect 44 0 46 2;
#X connect 45 0 46 3;
#X connect 46 0 106 0;
#X connect 47 0 127 0;
#X connect 48 0 128 0;
#X connect 49 0 8 0;
#X connect 50 0 0 0;
#X connect 51 0 52 0;
#X connect 52 0 36 0;
#X connect 53 0 124 0;
#X connect 54 0 39 1;
#X connect 54 0 107 0;
#X connect 55 0 53 0;
#X connect 55 1 42 0;
#X connect 56 0 55 0;
#X connect 57 0 52 0;
#X connect 59 0 4 1;
#X connect 60 0 129 0;
#X connect 61 0 62 0;
#X connect 62 0 19 0;
#X connect 63 0 64 0;
#X connect 64 0 25 0;
#X connect 65 0 66 0;
#X connect 66 0 13 0;
#X connect 67 0 68 0;
#X connect 68 0 6 0;
#X connect 69 0 67 0;
#X connect 70 0 14 0;
#X connect 70 0 26 0;
#X connect 70 0 20 0;
#X connect 71 0 91 0;
#X connect 72 0 50 0;
#X connect 73 0 76 0;
#X connect 73 1 116 0;
#X connect 74 0 75 0;
#X connect 75 0 109 0;
#X connect 76 0 114 0;
#X connect 77 0 92 0;
#X connect 78 0 79 0;
#X connect 78 1 80 0;
#X connect 79 0 115 0;
#X connect 80 0 115 0;
#X connect 81 0 93 0;
#X connect 82 0 83 0;
#X connect 82 1 84 0;
#X connect 83 0 113 0;
#X connect 84 0 113 0;
#X connect 85 0 87 0;
#X connect 86 0 108 0;
#X connect 87 0 88 0;
#X connect 87 1 89 0;
#X connect 87 2 90 0;
#X connect 88 0 73 0;
#X connect 88 0 51 0;
#X connect 89 0 78 0;
#X connect 89 0 57 0;
#X connect 90 0 82 0;
#X connect 90 0 142 0;
#X connect 91 0 94 0;
#X connect 92 0 95 0;
#X connect 93 0 96 0;
#X connect 97 0 106 1;
#X connect 98 0 106 2;
#X connect 99 0 106 3;
#X connect 100 0 72 1;
#X connect 101 0 72 2;
#X connect 102 0 72 3;
#X connect 103 0 109 0;
#X connect 104 0 70 0;
#X connect 105 0 72 0;
#X connect 106 0 50 0;
#X connect 107 0 106 4;
#X connect 108 0 85 0;
#X connect 109 0 86 0;
#X connect 110 0 111 0;
#X connect 112 0 134 0;
#X connect 113 0 81 0;
#X connect 114 0 71 0;
#X connect 115 0 77 0;
#X connect 116 0 114 0;
#X connect 117 0 118 0;
#X connect 119 0 122 0;
#X connect 120 0 129 1;
#X connect 120 0 131 1;
#X connect 120 0 132 1;
#X connect 120 0 133 1;
#X connect 121 0 126 0;
#X connect 122 0 120 0;
#X connect 123 0 125 0;
#X connect 123 0 130 0;
#X connect 124 0 48 0;
#X connect 124 0 47 0;
#X connect 124 0 121 0;
#X connect 125 0 126 1;
#X connect 125 0 127 1;
#X connect 125 0 128 1;
#X connect 126 0 133 0;
#X connect 127 0 132 0;
#X connect 128 0 131 0;
#X connect 129 0 56 0;
#X connect 130 0 121 1;
#X connect 130 0 47 1;
#X connect 130 0 48 1;
#X connect 131 0 45 0;
#X connect 132 0 44 0;
#X connect 133 0 43 0;
#X connect 134 0 135 0;
#X connect 135 0 194 0;
#X connect 135 0 195 0;
#X connect 136 0 139 1;
#X connect 137 0 136 0;
#X connect 138 0 141 0;
#X connect 140 0 137 0;
#X connect 141 0 140 0;
#X connect 142 0 52 0;
#X connect 143 0 145 0;
#X connect 144 0 145 0;
#X connect 145 0 153 0;
#X connect 145 0 154 0;
#X connect 145 0 155 0;
#X connect 146 0 145 0;
#X connect 147 0 158 0;
#X connect 147 0 182 0;
#X connect 148 0 156 0;
#X connect 148 0 184 0;
#X connect 149 0 157 0;
#X connect 149 0 183 0;
#X connect 150 0 191 0;
#X connect 151 0 190 0;
#X connect 152 0 189 0;
#X connect 153 0 152 0;
#X connect 154 0 151 0;
#X connect 155 0 150 0;
#X connect 159 0 50 1;
#X connect 160 0 50 2;
#X connect 161 0 50 3;
#X connect 162 0 172 0;
#X connect 163 0 164 0;
#X connect 164 0 105 1;
#X connect 164 1 105 2;
#X connect 164 2 105 3;
#X connect 165 0 105 0;
#X connect 173 0 54 1;
#X connect 173 0 107 1;
#X connect 174 0 181 0;
#X connect 175 0 174 0;
#X connect 175 0 185 0;
#X connect 176 0 177 0;
#X connect 180 0 152 1;
#X connect 180 0 151 1;
#X connect 180 0 150 1;
#X connect 181 0 187 0;
#X connect 185 0 180 0;
#X connect 185 0 153 1;
#X connect 185 0 154 1;
#X connect 185 0 155 1;
#X connect 186 0 145 1;
#X connect 186 0 188 0;
#X connect 187 0 186 0;
#X connect 188 0 189 1;
#X connect 188 0 190 1;
#X connect 188 0 191 1;
#X connect 189 0 148 0;
#X connect 190 0 149 0;
#X connect 191 0 147 0;
#X connect 194 0 113 1;
#X connect 194 0 115 1;
#X connect 194 0 114 1;
#X connect 195 0 109 1;
#X connect 196 0 40 1;
#X connect 197 0 196 0;
