#N canvas 683 0 675 664 16;
#X obj 22 113 part_head;
#X obj 153 205 r \$0-domain;
#X obj 226 232 r \$0-arg;
#X obj 632 788 s \$0-domain;
#X symbolatom 632 758 10 0 0 0 - - -;
#X obj 400 375 loadbang;
#X obj 632 721 del 1;
#X obj 692 722 t b a;
#X msg 397 519 set cylinder;
#X obj 516 725 s \$0-arg;
#X obj 107 550 part_render;
#X floatatom 215 824 5 0 0 0 - - -;
#X obj -38 669 colorRGB;
#X floatatom 224 676 5 0 0 0 - - -;
#X msg 134 578 0.6;
#X msg 165 651 0.7;
#X obj -19 768 alpha;
#X obj 22 58 gemhead 52;
#X obj 112 439 part_gravity;
#X obj 21 177 part_killold 10;
#X obj 140 517 part_follow;
#X obj 561 262 metro 1000;
#X obj 560 307 random 3;
#X obj 353 480 t b b;
#X obj 575 348 sel 0 1 2;
#X obj 523 473 t b b;
#X obj 655 459 t b b;
#X msg 542 518 set cone;
#X msg 737 521 set line;
#X msg 520 546 1 1 -2 0 0 -3 2 3;
#X obj 510 441 bng 15 250 50 0 empty empty empty 17 7 0 10 -262144
-1 -1;
#X obj 692 436 bng 15 250 50 0 empty empty empty 17 7 0 10 -262144
-1 -1;
#X obj 52 275 part_source 100;
#X msg 104 242 100;
#X obj 67 352 part_velocity;
#X obj 135 304 r \$0-domain;
#X obj 208 331 r \$0-arg;
#X obj 22 142 part_size 0.4;
#X obj 40 0 tgl 15 0 empty empty empty 17 7 0 10 -262144 -1 -1 0 1
;
#X obj 363 93 snapshot~;
#X floatatom 364 138 5 0 0 0 - - -;
#X obj 305 93 metro 1;
#X obj 306 68 bng 15 250 50 0 empty empty empty 17 7 0 10 -262144 -1
-1;
#X obj 309 27 loadbang;
#X obj 365 185 + 1;
#X msg 177 64 speed \$1;
#X obj 344 283 + 0.005;
#X obj 364 250 / 50;
#X obj 569 232 loadbang;
#X msg 718 556 5 \$1 0 -5 \$1 0;
#X obj 701 205 + 2;
#X msg 269 428 0 -4 0;
#X obj 285 383 loadbang;
#X msg 231 635 0.14;
#X obj 230 589 loadbang;
#X msg 157 610 0.3;
#X obj -103 478 pix_sig2pix~;
#X obj -76 376 adc~;
#X obj -98 550 pix_texture;
#X obj 8 852 sphere;
#X obj 567 15 notein;
#X floatatom 653 72 5 0 0 0 - - -;
#X floatatom 581 78 5 0 0 0 - - -;
#X floatatom 518 70 5 0 0 0 - - -;
#X obj 516 110 - 48;
#X floatatom 509 152 5 0 0 0 - - -;
#X obj 340 323 +;
#X obj 465 198 / 36;
#X obj 365 214 / 3;
#X obj 426 27 osc~ 0.4;
#X obj 674 134 midiin;
#X obj 344 600 bendin;
#X floatatom 344 629 5 0 0 0 - - -;
#X obj 343 657 / 17000;
#X obj 341 700 * 2;
#X obj 341 735 - 1;
#X obj 341 764 * 5;
#X obj 341 793 + 6;
#X floatatom 81 816 5 0 0 0 - - -;
#X obj 80 691 loadbang;
#X msg 313 550 0 0 0 0 0 2 0 55;
#X obj 443 288 line;
#X obj 442 246 pack f 400;
#X msg 195 721 1;
#X obj 117 781 - 3.9;
#X msg 59 725 -2.9;
#X connect 0 0 37 0;
#X connect 1 0 32 2;
#X connect 2 0 32 3;
#X connect 4 0 3 0;
#X connect 5 0 23 0;
#X connect 6 0 4 0;
#X connect 7 0 6 0;
#X connect 7 1 4 0;
#X connect 8 0 7 0;
#X connect 10 0 12 0;
#X connect 11 0 59 2;
#X connect 11 0 84 0;
#X connect 12 0 16 0;
#X connect 13 0 12 4;
#X connect 14 0 12 1;
#X connect 15 0 12 3;
#X connect 16 0 59 0;
#X connect 17 0 0 0;
#X connect 18 0 20 0;
#X connect 19 0 32 0;
#X connect 20 0 10 0;
#X connect 21 0 22 0;
#X connect 22 0 24 0;
#X connect 23 0 80 0;
#X connect 23 1 8 0;
#X connect 24 0 23 0;
#X connect 24 1 25 0;
#X connect 24 2 26 0;
#X connect 25 0 29 0;
#X connect 25 1 27 0;
#X connect 26 0 49 0;
#X connect 26 1 28 0;
#X connect 27 0 7 0;
#X connect 28 0 7 0;
#X connect 29 0 9 0;
#X connect 30 0 25 0;
#X connect 31 0 26 0;
#X connect 32 0 34 0;
#X connect 33 0 32 1;
#X connect 34 0 18 0;
#X connect 35 0 34 1;
#X connect 36 0 34 2;
#X connect 37 0 19 0;
#X connect 38 0 17 0;
#X connect 39 0 40 0;
#X connect 40 0 44 0;
#X connect 40 0 50 0;
#X connect 41 0 39 0;
#X connect 42 0 41 0;
#X connect 43 0 42 0;
#X connect 44 0 68 0;
#X connect 45 0 0 0;
#X connect 46 0 66 0;
#X connect 47 0 46 0;
#X connect 48 0 21 0;
#X connect 49 0 9 0;
#X connect 50 0 49 0;
#X connect 51 0 18 1;
#X connect 52 0 51 0;
#X connect 53 0 13 0;
#X connect 54 0 53 0;
#X connect 54 0 15 0;
#X connect 54 0 55 0;
#X connect 54 0 14 0;
#X connect 55 0 12 2;
#X connect 56 0 58 0;
#X connect 57 0 56 0;
#X connect 57 0 56 2;
#X connect 57 0 56 1;
#X connect 57 1 56 1;
#X connect 57 1 56 0;
#X connect 57 1 56 2;
#X connect 60 0 63 0;
#X connect 60 1 62 0;
#X connect 60 2 61 0;
#X connect 63 0 64 0;
#X connect 64 0 65 0;
#X connect 65 0 67 0;
#X connect 66 0 45 0;
#X connect 67 0 82 0;
#X connect 68 0 47 0;
#X connect 69 0 39 0;
#X connect 71 0 72 0;
#X connect 72 0 73 0;
#X connect 73 0 74 0;
#X connect 74 0 75 0;
#X connect 75 0 76 0;
#X connect 76 0 77 0;
#X connect 77 0 11 0;
#X connect 78 0 59 1;
#X connect 79 0 85 0;
#X connect 79 0 83 0;
#X connect 80 0 9 0;
#X connect 81 0 66 1;
#X connect 82 0 81 0;
#X connect 83 0 11 0;
#X connect 84 0 78 0;
#X connect 85 0 78 0;
