#N canvas 683 0 675 678 16;
#X obj -466 257 gemwin;
#X msg -396 258 0 \, destroy;
#X msg -470 228 reset \, dimen 640 480 \, create \, 1;
#X msg -397 281 fullscreen \$1;
#X obj -234 279 tgl 23 0 empty empty Toggle_Fullscreen -15 -15 0 10
-4032 -1 -1 1 1;
#X msg -397 308 cursor \$1;
#X obj -257 334 tgl 23 0 empty empty Toggle_Mouse -25 -10 0 15 -4160
-1 -1 0 1;
#X obj -312 691 dancecube;
#X floatatom 71 273 5 0 0 0 - - -;
#X obj -321 524 pack f f f;
#X floatatom -362 492 5 0 0 0 - - -;
#X floatatom -303 492 5 0 0 0 - - -;
#X floatatom -246 491 5 0 0 0 - - -;
#X floatatom 350 320 5 0 0 0 - - -;
#X floatatom 130 294 5 0 0 0 - - -;
#X obj -533 598 translateXYZ 0 0 -3;
#X floatatom 282 311 5 0 0 0 - - -;
#X obj 341 114 vsl 25 200 1.27 127 0 1 empty empty cube_repeat_trail
0 -9 0 12 -4160 -4032 -1 0 1;
#X obj 298 96 vsl 25 200 0 1 0 0 empty empty wander_permission 0 -9
0 12 -45076 -245812 -1 157 1;
#X obj 257 100 vsl 25 200 -20 20 0 0 empty empty z 0 -9 0 18 -128992
-1 -1 9950 1;
#X obj 222 99 vsl 25 200 -20 20 0 0 empty empty y 0 -9 0 18 -128992
-1 -1 9950 1;
#X obj 189 98 vsl 25 200 -20 20 0 0 empty empty x 0 -9 0 18 -128992
-1 -1 9950 1;
#X obj 135 83 vsl 25 200 0 1 0 0 empty empty color/draw_type 0 -9 0
12 -159808 -1 -1 470 1;
#X obj 98 61 vsl 25 200 0 1 0 0 empty empty jitter_jump 0 -9 0 12 -4032
-1 -1 0 1;
#X obj -323 441 t b f;
#X obj -249 446 t b f;
#X obj 811 773;
#X obj 780 450;
#X floatatom 189 315 5 0 0 0 - - -;
#X floatatom 220 343 5 0 0 0 - - -;
#X floatatom 257 372 5 0 0 0 - - -;
#X obj -65 419 s \$0-jitter;
#X obj -501 506 r \$0-jitter;
#X obj 58 417 s \$0-colordraw;
#X obj -535 470 r \$0-colordraw;
#X obj 73 455 s \$0-x;
#X obj -399 431 r \$0-x;
#X obj -326 403 r \$0-y;
#X obj 142 455 s \$0-y;
#X obj 212 454 s \$0-z;
#X obj -245 395 r \$0-z;
#X obj 291 454 s \$0-wander;
#X obj -262 553 r \$0-wander;
#X obj 331 423 s \$0-rep;
#X obj -184 585 r \$0-rep;
#X obj 5 110 bng 50 250 50 0 empty empty Make_Window 17 7 0 10 -257985
-1 -1;
#X obj -533 565 gemhead 51;
#X obj -429 647 alpha;
#X obj 547 85 notein;
#X floatatom 634 160 5 0 0 0 - - -;
#X floatatom 562 166 5 0 0 0 - - -;
#X floatatom 499 158 5 0 0 0 - - -;
#X obj 497 198 - 48;
#X floatatom 490 240 5 0 0 0 - - -;
#X obj -43 53 loadbang;
#X obj 623 277 bendin;
#X floatatom 623 306 5 0 0 0 - - -;
#X obj 656 389 / 17000;
#X obj -70 267 ctlin;
#X obj -70 296 / 127;
#X obj 473 284 / 36;
#X obj 406 620 tgl 15 0 empty empty empty 17 7 0 10 -262144 -1 -1 0
1;
#X obj 216 787 dancecube;
#X obj 208 690 pack f f f;
#X floatatom 154 639 5 0 0 0 - - -;
#X floatatom 229 640 5 0 0 0 - - -;
#X floatatom 306 641 5 0 0 0 - - -;
#X obj -5 694 translateXYZ 0 0 -3;
#X obj 207 547 t b f;
#X obj 279 542 t b f;
#X obj 27 602 r \$0-jitter;
#X obj -7 566 r \$0-colordraw;
#X obj 129 527 r \$0-x;
#X obj 202 499 r \$0-y;
#X obj 283 491 r \$0-z;
#X obj 345 654 r \$0-wander;
#X obj 360 690 r \$0-rep;
#X obj -5 661 gemhead 51;
#X obj 99 743 alpha;
#X obj 632 979 dancecube;
#X obj 623 812 pack f f f;
#X floatatom 582 780 5 0 0 0 - - -;
#X floatatom 641 780 5 0 0 0 - - -;
#X floatatom 698 779 5 0 0 0 - - -;
#X obj 411 886 translateXYZ 0 0 -3;
#X obj 631 657 t b f;
#X obj 705 660 t b f;
#X obj 443 794 r \$0-jitter;
#X obj 409 758 r \$0-colordraw;
#X obj 555 645 r \$0-x;
#X obj 628 617 r \$0-y;
#X obj 709 609 r \$0-z;
#X obj 682 841 r \$0-wander;
#X obj 760 873 r \$0-rep;
#X obj 411 853 gemhead 51;
#X obj 515 935 alpha;
#X obj 566 550 tgl 15 0 empty empty empty 17 7 0 10 -262144 -1 -1 1
1;
#X obj 152 600 - 0.5;
#X obj 222 599 - 0.5;
#X obj 299 593 - 0.5;
#X obj 574 725 + 0.5;
#X obj 644 724 + 0.5;
#X obj 721 718 + 0.5;
#X obj 221 8 loadbang;
#X msg 221 37 0;
#X obj -86 347 * 6;
#X obj -21 332 / 3;
#X obj 554 261 line;
#X obj 552 228 pack f 900;
#X obj 568 502 == 8192;
#X obj 417 549 bng 15 250 50 0 empty empty empty 17 7 0 10 -262144
-1 -1;
#X obj 455 578 spigot;
#X obj 477 496 != 8192;
#X obj 469 627 tgl 15 0 empty empty empty 17 7 0 10 -262144 -1 -1 0
1;
#X obj -100 208 del 2000;
#X obj 455 323 / 2;
#X connect 1 0 0 0;
#X connect 2 0 0 0;
#X connect 3 0 0 0;
#X connect 4 0 3 0;
#X connect 5 0 0 0;
#X connect 6 0 5 0;
#X connect 8 0 31 0;
#X connect 9 0 7 3;
#X connect 10 0 9 0;
#X connect 11 0 9 1;
#X connect 12 0 9 2;
#X connect 13 0 43 0;
#X connect 14 0 33 0;
#X connect 15 0 47 0;
#X connect 16 0 41 0;
#X connect 17 0 13 0;
#X connect 18 0 16 0;
#X connect 19 0 30 0;
#X connect 20 0 29 0;
#X connect 21 0 28 0;
#X connect 22 0 14 0;
#X connect 23 0 8 0;
#X connect 24 0 9 0;
#X connect 24 1 11 0;
#X connect 25 0 9 0;
#X connect 25 1 12 0;
#X connect 26 0 27 0;
#X connect 28 0 35 0;
#X connect 29 0 38 0;
#X connect 30 0 39 0;
#X connect 32 0 7 1;
#X connect 34 0 7 2;
#X connect 36 0 10 0;
#X connect 37 0 24 0;
#X connect 40 0 25 0;
#X connect 42 0 7 4;
#X connect 44 0 7 5;
#X connect 45 0 2 0;
#X connect 46 0 15 0;
#X connect 47 0 7 0;
#X connect 48 0 51 0;
#X connect 48 1 50 0;
#X connect 48 2 49 0;
#X connect 51 0 52 0;
#X connect 52 0 53 0;
#X connect 53 0 60 0;
#X connect 53 0 108 0;
#X connect 54 0 45 0;
#X connect 54 0 114 0;
#X connect 55 0 56 0;
#X connect 56 0 57 0;
#X connect 56 0 109 0;
#X connect 56 0 112 0;
#X connect 58 0 59 0;
#X connect 59 0 22 0;
#X connect 59 0 105 0;
#X connect 59 0 106 0;
#X connect 60 0 18 0;
#X connect 60 0 115 0;
#X connect 61 0 77 0;
#X connect 63 0 62 3;
#X connect 64 0 63 0;
#X connect 65 0 63 1;
#X connect 66 0 63 2;
#X connect 67 0 78 0;
#X connect 68 0 63 0;
#X connect 68 1 98 0;
#X connect 69 0 63 0;
#X connect 69 1 99 0;
#X connect 70 0 62 1;
#X connect 71 0 62 2;
#X connect 72 0 97 0;
#X connect 73 0 68 0;
#X connect 74 0 69 0;
#X connect 75 0 62 4;
#X connect 76 0 62 5;
#X connect 77 0 67 0;
#X connect 78 0 62 0;
#X connect 80 0 79 3;
#X connect 81 0 80 0;
#X connect 82 0 80 1;
#X connect 83 0 80 2;
#X connect 84 0 95 0;
#X connect 85 0 80 0;
#X connect 85 1 101 0;
#X connect 86 0 80 0;
#X connect 86 1 102 0;
#X connect 87 0 79 1;
#X connect 88 0 79 2;
#X connect 89 0 100 0;
#X connect 90 0 85 0;
#X connect 91 0 86 0;
#X connect 92 0 79 4;
#X connect 93 0 79 5;
#X connect 94 0 84 0;
#X connect 95 0 79 0;
#X connect 96 0 111 1;
#X connect 97 0 64 0;
#X connect 98 0 65 0;
#X connect 99 0 66 0;
#X connect 100 0 81 0;
#X connect 101 0 82 0;
#X connect 102 0 83 0;
#X connect 103 0 104 0;
#X connect 104 0 21 0;
#X connect 104 0 20 0;
#X connect 104 0 19 0;
#X connect 104 0 22 0;
#X connect 104 0 18 0;
#X connect 105 0 17 0;
#X connect 106 0 18 0;
#X connect 107 0 17 0;
#X connect 108 0 107 0;
#X connect 109 0 96 0;
#X connect 110 0 111 0;
#X connect 111 0 61 0;
#X connect 111 0 113 0;
#X connect 112 0 110 0;
#X connect 113 0 94 0;
#X connect 114 0 4 0;
#X connect 115 0 23 0;
